<?xml version="1.0" encoding="utf-8"?>
<!-- Generator: Adobe Illustrator 19.1.0, SVG Export Plug-In . SVG Version: 6.00 Build 0)  -->
<svg version="1.1" id="Lager_1" xmlns="http://www.w3.org/2000/svg" xmlns:xlink="http://www.w3.org/1999/xlink" x="0px" y="0px"
	 viewBox="-45 -32.8 150 125" style="enable-background:new -45 -32.8 150 125;" xml:space="preserve">
<style type="text/css">
	.st0{fill:#568644;}
	.st1{fill:#EEC0A7;}
	.st2{fill:#6E6B81;}
	.st3{fill:#3E3A54;}
	.st4{fill:#EDE5C9;}
</style>
<g>
	<path class="st0" d="M34,65.9l-0.1-1.6c-0.1-1,0.7-1.7,1.7-1.4l1.3,0.3c1,0.3,1.3-0.2,0.6-0.9l-8.1-9.1c-0.7-0.8-0.4-1.1,0.5-0.8
		l10.3,3.2c1,0.3,1.2-0.1,0.5-0.8L40,54.1c-0.7-0.8-0.4-1.3,0.6-1.3l2.1,0.1c1,0,1.2-0.4,0.3-0.9l-1.2-0.8c-0.9-0.6-0.9-1.5,0-2.1
		l0.8-0.6c0.8-0.6,0.7-1-0.3-0.9c0,0-13.8,1.7-16.2,1.1C23.6,48,22.6,47,22.6,47c-0.5-0.6,1.7-2.4,2.9-3.6c2-1.9,7.9-7.6,7.9-7.6
		c0.2-0.2,0.5-0.5,0.7-0.7l8.6-9.4c0.2-0.2,0.2-0.5-0.1-0.7l-0.8-0.6c-0.2-0.2-0.5-0.2-0.7,0.1l-1.8,2c-0.2,0.2-0.5,0.6-0.7,0.8
		l-6,6.5c-0.2,0.2-0.5,0.5-0.7,0.7l-9.3,9c-0.2,0.2-2,2.1-2.8,2.1c-0.6,0-2.1-0.8-2.1-0.8c-1-0.4-1.6-1.5-1.5-2.5L18.8,23
		c0.1-1-0.3-1.2-0.9-0.4l-0.6,0.7c-0.7,0.8-1.6,0.7-2.1-0.2l-1.3-2.3C13.4,20,13,20.1,13,21.1l0.2,4.5c0,1-0.6,1.3-1.4,0.6L9.2,24
		c-0.8-0.7-1.2-0.4-0.8,0.6l5.2,16c0.3,1,0.1,1.1-0.6,0.3L2.4,27.2c-0.6-0.8-1.1-0.6-1,0.4l0.1,0.8c0.1,1-0.6,1.6-1.6,1.2l-3.5-1.3
		c-1-0.4-1.3,0-0.7,0.9l2.1,3.4c0.6,0.9,0.2,1.5-0.9,1.5l-2-0.1c-1-0.1-1.1,0.3-0.2,0.8l15.5,8.5c0.9,0.5,0.8,0.7-0.2,0.5l-12.6-2.9
		c-1-0.2-1.3,0.2-0.6,1l1.7,2.1c0.7,0.8,0.4,1.6-0.7,1.7L-5.5,46c-1,0.1-1,0.5,0,0.8l2.7,0.7c1,0.3,1.2,1.1,0.5,1.9l-0.5,0.5
		c-0.7,0.8-0.5,1.2,0.6,1l16-2.9c0.9-0.2,3.3-0.8,3.4,0.2c0,0-1.1,0.9-1.3,1.1l-5.6,4.3c-0.2,0.2-0.6,0.4-0.8,0.6l-22.1,16.7
		c-0.2,0.2-0.6,0.4-0.8,0.6l-5.2,3.8c-0.2,0.2-0.6,0.4-0.8,0.6l-4.5,3.4c-0.2,0.2-0.6,0.5-0.8,0.6l-7,5.6c-0.2,0.2-0.6,0.5-0.8,0.7
		l-2.1,1.8c-0.2,0.2-0.2,0.5-0.1,0.7l1.7,0.8c0.2,0.2,0.5,0.2,0.7,0.1l1.4-1.3c0.2-0.2,0.6-0.5,0.8-0.6l2.6-2.1
		c0.2-0.2,0.6-0.5,0.8-0.6l3.6-2.8c0.2-0.2,0.6-0.5,0.8-0.6l4.4-3.4c0.2-0.2,0.6-0.4,0.8-0.6l5.1-3.8c0.2-0.2,0.6-0.4,0.8-0.6
		l21.9-17c0.2-0.2,0.6-0.5,0.8-0.6l5.6-4.5c0.2-0.2,0.6-0.5,0.8-0.7c0,0,1.2-1,1.7-1.1c0.5,0,1.9,1.7,1.9,1.7c0.8,0.7,0.9,2,0.3,2.8
		l-7.7,10.8c-0.6,0.8-0.3,1.2,0.6,0.8l1.1-0.5c1-0.4,2,0.1,2.2,1.1l0.2,0.7c0.3,1,0.8,1.1,1.3,0.1l0.7-1.5c0.4-0.9,1.1-0.9,1.4,0.1
		l0.2,0.7c0.3,1,0.7,1,0.9-0.1l1.7-9.2c0.2-1,0.6-1,0.8,0l2.2,8.7c0.3,1,1,1.1,1.6,0.3l0.4-0.5c0.6-0.8,1.6-0.9,2.3-0.1l0.9,1.2
		C33.6,67.2,34,67,34,65.9z"/>
	<path class="st1" d="M65.5-16.4c8.3-5.7,20.4-5,24.4,0.6c6.6,9.3-1.9,20.4-5.1,23c0,0,13.1,9.7,9,17.9C88,37,75.5,35.8,70.2,31.8
		c-2.6,7.5-8.9,17.5-16.6,16.1c-8.8-1.6-12.2-13.6-11-23C30.5,23.4,18.7,15.9,19,7.2c0.4-10.3,17-14.4,17-14.4s-4.3-16.2,5.6-21.3
		C51.8-33.6,61.4-26.7,65.5-16.4z"/>
	<path class="st2" d="M65,18.1c0.4,0.6,0.8,1.1,1.2,1.5c0.1,0.1,0.1,0.1,0.1,0.1c0.1,0.1,0.1,0.4,0.1,0.7c0,0-0.1,0.5,0.3,0.9
		c0.4,0.5,1.1,0.3,1.3,0.1c0.8-0.8-0.3-1.5-0.3-1.5c-0.2-0.1-0.5-0.4-0.6-0.6c0,0,0,0-0.1-0.2c-0.2-0.5-0.5-1.1-0.9-1.7
		c-0.4-0.6-0.7-1.2-1-1.6c0,0,0,0,0,0c0,0,0.1-0.2,0.3-0.4l1.3-1.4c0.2-0.2,0.5-0.3,0.7-0.1l1.4,1.1c0.2,0.2,0.3,1,0.5,1.3
		c0.4,0.9,1.2,0.4,1.6-0.1c0.2-0.3,0.3-0.9-0.3-1.3c-0.2-0.1-0.4-0.1-0.4-0.1c-0.3,0.1-0.7-0.1-0.9-0.3L67.9,13
		c-0.2-0.2-0.2-0.6-0.1-0.8c0,0,1.2-2.1,1.8-3.4c0-0.1,0-0.1,0-0.1c0-0.1,0.3,0,0.5,0l2.3,0.8c0.3,0.1,0.6,0.3,0.8,0.6
		c0,0,0.9,1.4,1.4,0.9c0.6-0.5,0.7-1.3,0.4-1.9C74.8,8.6,73.8,9,73.8,9c-0.3,0.1-0.7,0.1-0.9-0.1l-2.4-1.2c-0.2-0.1-0.4-0.5-0.4-0.7
		l0.2-2c0-0.3,0.2-0.5,0.5-0.6l1.5-0.2c0.3,0,0.7,0,0.9,0.2c0,0,0.8,0.5,1.3-0.1c0.6-0.7,0.4-1.3,0-1.6C74,2.2,73.4,2,72.7,3
		c0,0,0,0,0,0c0,0-0.2,0-0.5,0l-1.5,0c-0.3,0-0.6-0.2-0.7-0.5l-1.4-3c-0.1-0.2-0.1-0.6,0.1-0.8l1.7-2c0.2-0.2,0.7-0.3,0.8-0.3
		c0.5-0.2,0.8-0.8,0.7-1.4c-0.1-0.5-0.8-0.9-1.2-0.6C70.2-5.3,70-5,70-4.9c-0.1,0.3-0.2,0.7-0.4,0.8l-1.9,1.8
		c-0.2,0.2-0.5,0.2-0.8,0l-1.7-1.3C65-3.7,64.9-4.1,65-4.3c0,0,0.1-0.4,0.3-0.8c0.2-0.6,0.4-1.3,0.5-1.8c0-0.1,0-0.1,0-0.1
		c0-0.1,0.4-0.2,0.5-0.3c0.5-0.6,0.3-1.1,0-1.4c-0.4-0.3-0.9-0.5-1.5,0.3c-0.3,0.4-0.1,0.6-0.1,0.6c0.2,0.2,0.3,0.4,0.3,0.5
		c0,0,0,0,0,0c-0.2,0.5-0.6,1.1-0.8,1.7c-0.2,0.4-0.4,0.8-0.4,0.8c-0.1,0.3-0.4,0.4-0.7,0.3l-2.5-0.5C60.2-4.9,60-5,60-5
		c0,0,0,0,0,0c0-0.6-0.2-1.4-0.3-2.1C59.6-8.1,59.4-9,59.4-9c0-0.3,0-0.7,0.2-0.9c0,0,0.3-0.5-0.5-1.2c-0.4-0.3-1.3-0.2-1.4,0.7
		c0,0.4,0.2,0.6,0.2,0.6c0.2,0.2,0.4,0.6,0.4,0.9c0,0,0.1,1,0.2,1.9c0.1,0.7,0.2,1.5,0.2,1.5c0,0.3-0.2,0.5-0.4,0.6l-1.8,0.3
		c-0.3,0.1-0.6-0.1-0.8-0.3c0,0-0.3-0.4-0.6-0.7c-0.6-0.7-1.2-1.5-1.7-2c-0.1-0.1-0.1-0.1-0.1-0.1c-0.1-0.1-0.1-0.2,0-0.3
		c0,0,0,0,0-0.1c0.2-0.6-0.1-1.4-1.4-1.1c-1.3,0.3-0.8,2.1-0.1,2.2c0.2,0,0.2,0,0.2,0c0.2-0.1,0.4,0,0.5,0.1c0,0,0,0,0.1,0.1
		c0.4,0.6,1,1.3,1.6,2.1c0.2,0.3,0.3,0.4,0.3,0.4c0.2,0.2,0.1,0.5-0.1,0.7L51-0.7c-0.2,0.2-0.5,0.2-0.7,0.1c0,0-0.1-0.1-0.4-0.4
		c-0.5-0.5-1.1-0.9-1.5-1.2c-0.2-0.1-0.2-0.1-0.2-0.1c-0.2-0.1-0.3-0.7-0.4-0.9c-0.2-0.3-0.7-0.6-1.2-0.2C46-3.1,46.1-1.8,47-1.9
		c0,0,0,0,0,0c0,0,0.2,0.1,0.3,0.3c0,0,0,0,0.2,0.2c0.3,0.4,0.8,1,1.3,1.5c0.4,0.4,0.7,0.7,0.7,0.7c0.2,0.2,0.3,0.6,0.2,0.8
		l-0.7,2.7c-0.1,0.3-0.3,0.4-0.6,0.4l-1.3-0.3c-0.3-0.1-0.7-0.2-1-0.2c0,0-1.3-0.3-1.9-0.4c-0.2,0-0.2,0-0.2,0
		c-0.2,0-0.4-0.1-0.4-0.1c0,0,0,0,0,0c-0.1-1.4-1.7-1.2-2-0.4c-0.4,0.8,0.5,1.2,1.1,1.2c0.2,0,0.2,0,0.2,0c0.2-0.1,0.5-0.1,0.7,0
		c0,0,0,0,0.3,0.1c0.6,0.3,1.9,0.7,1.9,0.7c0.3,0.1,0.7,0.2,1,0.3c0,0,1.2,0.4,1.9,0.6c0,0,0,0,0,0c0,0,0.1,0.3,0.1,0.5l0.4,2.9
		c0.1,0.3,0.1,0.5,0.1,0.5c0,0,0,0,0,0c-0.6,0.1-1.3,0.2-2,0.4c-0.7,0.1-1.4,0.3-2,0.5c-0.2,0-0.2,0-0.2,0c-0.1,0-0.5-0.6-1.4,0
		c-0.8,0.5-0.3,2.1,0.6,1.9c0.3,0,0.5-0.2,0.6-0.3c0.2-0.2,0.3-0.5,0.4-0.5c0,0,0,0,0.1,0c0.6-0.1,1.3-0.1,2-0.3
		c0.7-0.1,1.5-0.2,2-0.4c0.1,0,0.1,0,0.1,0c0.1,0,0.2,0.2,0.3,0.4l0.9,1.7c0.1,0.2,0.1,0.6-0.1,0.8c0,0-0.6,0.5-1.1,1
		c-0.6,0.6-1.2,1.1-1.6,1.5c0,0,0,0,0,0c0,0-0.3,0.1-0.5,0.2c0,0-1.1,0.3-1,1.1c0.1,0.9,1,0.8,1.6,0.5c0.4-0.2,0.4-0.3,0.4-0.3
		c0-0.3,0.1-0.5,0.2-0.6c0,0,0,0,0.1,0c0.5-0.3,1.1-0.8,1.8-1.3c0.6-0.4,1.2-0.9,1.2-0.9c0.2-0.2,0.5-0.2,0.7,0c0,0,0,0,0.1,0.1
		c1,0.9,2.6,1.8,2.6,1.8c0.2,0.1,0.4,0.5,0.3,0.7l-0.6,2.9c-0.1,0.3-0.2,0.6-0.4,0.7c0,0,0,0-0.2,0.2c-0.5,0.8,0.8,1.6,1.4,0.9
		c0.4-0.5,0.3-1,0-1.2c0,0,0,0,0,0c0,0,0-0.3,0.1-0.5l0.8-2.6c0.1-0.3,0.4-0.4,0.6-0.4l3.1,0.1c0.3,0,0.6,0.1,0.8,0.4l1.6,2.8
		c0.1,0.2,0.2,0.5,0.2,0.6c0,0,0,0,0,0.1c-0.1,1,0.9,1.2,1.2,1c0.3-0.3,1.1-1.2,0-1.8c-0.3-0.2-0.7-0.3-0.8-0.6L62,18.3
		c-0.1-0.3,0-0.6,0.2-0.7l1.4-0.8c0.2-0.2,0.5-0.1,0.7,0.1C64.3,17,64.7,17.5,65,18.1z"/>
	<path class="st3" d="M63.1,2.5c-1.6-2.3-5.3-3.3-8.2,0.5s-0.5,8.6,3.7,9.8S66.3,7,63.1,2.5z"/>
	<g>
		<path class="st4" d="M42.4,8.2c0-0.8-2.9-1-3.4-1c-1.2-0.1-2.4-0.2-3.6-0.3c-2-0.2-4.1-0.3-6.1-0.4c-0.5,0-1,0-1.4-0.1
			c-0.6,0-1.3-0.2-1.8-0.1c-0.4,0.1-0.4,0.5-0.1,0.7c0.3,0.2,0.8,0.1,1.2,0.2c0.6,0.1,1.2,0.2,1.7,0.2c2,0.2,3.9,0.5,5.9,0.7
			c1.3,0.1,2.7,0.3,4,0.4C39.4,8.7,42.3,9.1,42.4,8.2C42.4,8,42.4,8.4,42.4,8.2z"/>
		<path class="st4" d="M46.3-24.8c0.9-0.4,3.7,8.4,4.1,9.4c0.1,0.4,0.3,0.8,0.4,1.2c0.2,0.6,0.6,1.3,0.4,1.9
			c-0.1,0.2-0.3,0.5-0.5,0.3c-0.2-0.1-0.2-0.6-0.3-0.8c-0.2-0.5-0.4-1-0.5-1.5c-0.5-1.4-1.1-2.7-1.7-4.1c-0.4-0.9-0.8-1.9-1.1-2.8
			c-0.2-0.5-0.4-1-0.5-1.4c-0.1-0.3-0.2-0.7-0.3-1C46.3-23.8,46.1-24.7,46.3-24.8z"/>
		<path class="st4" d="M56.2,26.1c0.6,0.1,0.3,1.2,0.3,1.7c-0.1,0.5-0.1,0.9-0.2,1.4c-0.1,1-0.3,2.1-0.4,3.1
			c-0.3,1.9-0.6,3.7-0.8,5.6c-0.1,0.9-0.2,2-0.5,2.9c-0.1,0.4-0.5,0.6-0.6,0.1c0-0.2,0-0.5,0.1-0.8c0.1-0.6,0.1-1.2,0.2-1.8
			c0.2-1.8,0.4-3.5,0.6-5.3c0.1-1.1,0.3-2.3,0.4-3.4c0.1-0.5,0.1-1,0.2-1.5C55.5,27.7,55.5,26,56.2,26.1z"/>
		<path class="st4" d="M87.3,22c0.4-0.6-2.1-1.9-2.5-2.1c-1-0.6-1.9-1.2-2.9-1.8c-1.6-1-3.3-1.9-5-2.9c-0.7-0.4-1.3-0.9-2.1-1.2
			c-0.3-0.1-0.8,0-0.7,0.4c0.1,0.3,0.3,0.5,0.5,0.6c0.5,0.4,1,0.8,1.5,1.1c1.6,1,3.2,1.9,4.8,2.8c1.1,0.6,2.1,1.2,3.2,1.8
			c0.4,0.2,0.8,0.4,1.1,0.6C85.7,21.6,86.9,22.6,87.3,22C87.3,22,87.2,22.2,87.3,22z"/>
		<path class="st4" d="M75.8-5c1.5-1.1,3-2.3,4.5-3.4c1.4-1,2.7-2.1,4-3.2c0.2-0.2,0.9-0.6,1-0.9c0.1-0.6-1.2-0.1-1.4,0
			c-0.7,0.4-1.3,0.9-1.9,1.4c-1.6,1.2-3.2,2.5-4.8,3.7c-0.8,0.6-1.5,1.2-2.3,1.8c-0.3,0.2-0.6,0.5-0.6,0.9C74.3-3.7,75.4-4.7,75.8-5
			C76-5.2,75.7-5,75.8-5z"/>
	</g>
</g>
</svg>
