<?xml version="1.0" encoding="utf-8"?>
<!-- Generator: Adobe Illustrator 19.1.0, SVG Export Plug-In . SVG Version: 6.00 Build 0)  -->
<svg version="1.1" id="Lager_1" xmlns="http://www.w3.org/2000/svg" xmlns:xlink="http://www.w3.org/1999/xlink" x="0px" y="0px"
	 viewBox="45 -32 150 125" style="enable-background:new 45 -32 150 125;" xml:space="preserve">
<style type="text/css">
	.st0{fill:#C6DE83;}
	.st1{fill:#568644;}
</style>
<g>
	<g>
		<path class="st0" d="M97.7,79.8c1.6,0,17.3,9.1,37.4-3.6c19.2-12.1,32.6-35.8,29.9-56.2c-2.8-20.3-15.1-47.9-15.1-47.9
			c-0.5-1-1.7-1.6-2.7-1.3c0,0-28.4,8.2-46.6,20.7c-15.7,10.8-27.6,28-25.7,48.2c2,20.5,16.9,36.1,18.8,38.2l-4.2,9.7
			c-0.4,1,0.1,2.1,1.1,2.5l0.2,0.1c1,0.4,2.2-0.2,2.5-1.2C93.2,89,96.3,79.7,97.7,79.8z"/>
	</g>
	<path class="st1" d="M140.4,57.6c-0.2-0.8-1.7,0.4-2.1,0.6c-1.2,0.6-2.5,1.2-3.7,1.8c-2.6,1.2-5.3,2.4-8,3.4
		c-5.2,2-10.5,3.8-15.9,5.1c-1.5,0.4-3.1,0.7-4.7,1c-0.7,0.1-1.4,0.2-2.1,0.3c-0.4,0.1-0.8,0.1-1.2,0.1c-0.2,0-0.7-0.1-0.6,0.2
		c-0.1-0.3,0.1-0.5,0.2-0.7c0.2-0.4,0.5-0.9,0.7-1.3c0.5-1,1-1.9,1.5-2.9c0.4-0.8,0.8-1.6,1.2-2.4c0.2-0.4,0.3-0.8,0.6-1.1
		c0.3-0.3,0.9-0.5,1.3-0.7c3.4-1.6,6.8-3.3,10.2-5c6.7-3.4,13.2-7,19.8-10.6c3.5-1.9,6.9-3.9,10.4-5.8c0.5-0.3,1-0.6,1.5-0.8
		c0.3-0.2,1.5-0.7,0.9-1.1c-0.3-0.1-1,0.4-1.3,0.6c-0.5,0.3-1,0.6-1.5,0.8c-5.7,3.1-11.4,6.2-17.2,9.2c-7.6,4-15.2,7.9-23,11.4
		c1.5-3,3-5.9,4.5-8.9c0.4-0.8,0.8-1.6,1.2-2.3c0.4-0.7,0.7-1.7,1.2-2.3c0.5-0.5,1.5-0.8,2.1-1.1c0.9-0.4,1.8-0.9,2.7-1.3
		c6.1-3.1,12-6.4,17.9-9.7c3-1.7,6-3.4,8.9-5.1c1.4-0.8,2.7-1.6,4.1-2.4c0.7-0.4,1.4-0.8,2.1-1.2c0.2-0.1,0.8-0.4,0.5-0.7
		c-0.3-0.2-0.6,0.1-0.9,0.3c-5,2.9-10.1,5.5-15.2,8.2c-6.8,3.6-13.7,7.1-20.8,10.3c0.8-1.6,1.6-3.1,2.4-4.7c0.4-0.8,0.8-1.5,1.1-2.3
		c0.4-0.8,0.7-1.9,1.3-2.5c0.2-0.3,0.7-0.4,1-0.6c1.9-1.1,3.9-2.2,5.8-3.3c5.9-3.4,11.8-6.8,17.7-10.1c2-1.1,4-2.3,5.9-3.4
		c0.3-0.1,0.8-0.3,0.9-0.5c0.3-0.4,0-0.6-0.4-0.5c-0.2,0.1-0.4,0.2-0.5,0.3c-5,2.6-9.9,5.2-14.9,7.8c-2.9,1.5-5.9,3.1-8.8,4.6
		c-1.1,0.6-2.2,1.1-3.2,1.7c-0.6,0.3-1.2,0.7-1.8,0.9c-0.1,0-0.2,0.1-0.2,0.1c1-2,2-4.1,3-6.1c0.5-1,0.9-1.9,1.4-2.9
		c0.5-1,0.9-2.3,1.8-2.9c2.8-1.9,5.8-3.5,8.7-5.2c3.7-2.1,7.3-4.2,11-6.3c0.3-0.2,0.7-0.3,0.9-0.5c0.2-0.2,0.5-0.5,0-0.6
		c-0.3-0.1-0.8,0.4-1,0.5c-2,1-4,2-6,3.1c-4.3,2.2-8.6,4.4-12.8,6.8c1.3-2.6,2.5-5.2,3.7-7.8c0.3-0.6,0.5-1.2,0.8-1.8
		c0.2-0.6,0.4-1.4,0.9-1.8c0.1-0.1,0.3-0.2,0.4-0.3c2.2-1.4,4.3-2.7,6.5-4.1c1.1-0.7,2.3-1.4,3.4-2.2c0.4-0.3,1.2-0.6,1.5-1
		c0.3-0.4-0.1-0.5-0.4-0.4c-0.3,0.1-0.6,0.3-0.9,0.5c-1.2,0.6-2.3,1.3-3.5,1.9c-2.1,1.2-4.2,2.4-6.4,3.6c1.7-4,3.3-8,4.9-12
		c0.8-2.1,1.7-4.2,2.5-6.3c0.4-0.9,0.8-1.8,1.1-2.7c0.1-0.5-0.2-0.8-0.5-0.3c-0.4,0.7-0.7,1.6-1,2.3c-0.5,1.3-1.1,2.5-1.6,3.8
		c-0.9,2-1.8,4.1-2.7,6.1c-1,2.4-2.1,4.8-3.2,7.2c0-3.3-0.3-6.5-0.8-9.7c-0.2-1.6-0.5-3.1-0.7-4.7c0-0.2,0-0.8-0.3-0.9
		c-0.3-0.2-0.4,0-0.4,0.3c-0.1,0.4,0.1,1,0.2,1.3c0.1,0.5,0.1,1,0.2,1.4c0.4,3.1,0.6,6.1,0.7,9.2c0,1.4,0,2.9-0.1,4.3
		c0,0.6-0.1,1.2-0.2,1.8c-0.1,0.8-0.6,1.6-0.9,2.3c-1.4,3.2-3,6.3-4.6,9.4c-0.3-3.9-0.7-7.8-1-11.7c-0.4-4.6-0.7-9.3-1.2-14
		c0-0.1,0-0.2,0-0.3c-0.2-0.4-0.5-0.2-0.6,0.1c-0.1,0.4,0,0.9,0.1,1.3c0.1,2.2,0.2,4.3,0.3,6.5c0.3,5.6,0.6,11.3,0.8,16.9
		c0,0.9,0.1,1.8,0.1,2.6c0,0.4,0.1,0.8,0.1,1.2c0,0.1-0.1,0.2-0.1,0.3c-0.3,0.7-0.7,1.4-1.1,2.1c-0.7,1.3-1.4,2.6-2,3.9
		c-0.5,1.1-1.1,2.1-1.7,3.2c-0.4,0.8-0.8,1.5-1.2,2.3c-1.6-11.4-2.5-22.9-3.5-34.4c0-0.3,0-2.2-0.6-1.8c-0.3,0.2,0,1.9,0,2.2
		c0.2,3.2,0.3,6.3,0.5,9.5c0.3,5.5,0.7,11,1.1,16.5c0.3,3.4,0.5,6.9,1,10.3c0.1,0.8-0.4,1.5-0.8,2.2c-0.5,0.9-1,1.9-1.4,2.8
		c-1,1.9-1.9,3.7-2.9,5.6c-1.7-7.2-3.7-14.3-5.7-21.4c-1-3.7-2.1-7.4-3.1-11c-0.5-1.8-1-3.6-1.5-5.3c-0.1-0.4-0.2-0.7-0.3-1.1
		c-0.1-0.2-0.2-0.9-0.3-1.1c-0.2-0.2-0.4-0.2-0.5,0c-0.1,0.2,0.1,0.8,0.2,1c0.3,1,0.5,1.9,0.7,2.9c0.5,1.9,0.9,3.8,1.4,5.7
		c0.9,3.7,1.8,7.4,2.7,11.1c0.9,3.7,1.8,7.4,2.6,11.1c0.4,1.9,0.8,3.7,1.3,5.6c0.2,0.9,0.4,1.9,0.6,2.8c0.1,0.6,0.4,1.3,0.4,1.9
		c0,0.7-0.6,1.7-1,2.3c-0.6,1.2-1.2,2.3-1.7,3.5c-1.3,2.5-2.5,5-3.8,7.5c-2.8-7.5-5.3-15.2-7.7-22.8c-1.3-3.9-2.5-7.9-3.7-11.8
		c-0.6-2.1-1.3-4.1-1.9-6.2c-0.1-0.2-0.1-0.7-0.4-0.8c-0.4-0.1-0.3,0.5-0.3,0.7c0.1,0.4,0.3,0.9,0.4,1.3c2,6.9,4,13.7,6.1,20.5
		c2,6.6,4,13.2,6.4,19.7c0.5,1.4-0.6,2.7-1.2,3.9c-0.4,0.8-0.8,1.6-1.3,2.5c-0.5,0.9-0.9,2-1.4,2.9c-0.3,0.4-0.2,0.3-0.4-0.1
		c-0.2-0.3-0.4-0.7-0.5-1c-0.4-0.7-0.8-1.5-1.2-2.3c-0.8-1.6-1.5-3.2-2.3-4.8c-3.2-7.3-5.9-14.8-8.3-22.4c-0.3-0.9-0.5-1.7-0.8-2.6
		c-0.1-0.4-0.3-0.8-0.4-1.3c-0.1-0.2-0.4-1.1-0.7-0.5c-0.1,0.2,0.1,0.8,0.2,1c0.1,0.4,0.2,0.9,0.3,1.3c0.3,1,0.5,2,0.8,3
		c1.1,4.1,2.3,8.1,3.7,12.1c1.2,3.6,2.5,7.2,3.9,10.7c0.7,1.8,1.5,3.6,2.3,5.4c0.4,0.9,0.9,1.8,1.3,2.7c0.2,0.4,0.6,0.9,0.6,1.3
		c0.1,0.5-0.3,1-0.5,1.4c-0.3,0.6-1.1,1.6-0.6,2.3c0.6,0.8,1.2,0.1,1.6-0.5c0.3-0.4,0.5-0.8,0.8-1.2c0.2-0.3,0.4-0.8,0.8-1
		c0.3-0.2,0.8-0.1,1.2-0.2c0.5-0.1,1-0.1,1.5-0.2c3.7-0.6,7.4-1.5,11-2.7c7.6-2.4,15-5.7,22-9.4c0.9-0.5,1.7-0.9,2.6-1.4
		C139.6,58.2,140.2,58,140.4,57.6z"/>
</g>
</svg>
