<?xml version="1.0" encoding="utf-8"?>
<!-- Generator: Adobe Illustrator 19.1.0, SVG Export Plug-In . SVG Version: 6.00 Build 0)  -->
<svg version="1.1" id="Lager_1" xmlns="http://www.w3.org/2000/svg" xmlns:xlink="http://www.w3.org/1999/xlink" x="0px" y="0px"
	 viewBox="45 -32 150 125" style="enable-background:new 45 -32 150 125;" xml:space="preserve">
<style type="text/css">
	.st0{fill:#07513F;}
	.st1{fill:#6E6B81;}
	.st2{fill:#568644;}
	.st3{fill:#DBEDD8;}
</style>
<g>
	<g>
		<path class="st0" d="M145.8,60.5c-1.2-2-3-5.5-3.8-7.6c0,0-13.6-33.5-33.4-49.9S50.4-30.5,50.4-30.5c-2.2-0.9-2.9-0.1-1.6,1.9
			c0,0,22.3,33.5,40.1,45.8c27.6,18.9,46.6,34,51,39.2s19.5,31.2,19.5,31.2c1.2,2,2.9,3.9,3.9,4.2s0.8-1.2-0.5-3.2L145.8,60.5z"/>
		<g>
			<path class="st1" d="M69.3-17.2c0.1-0.2,0.5-0.2,0.7,0c0.3,0.2,2.7,1.7,3.2,2.1c0.5,0.3,2.8,1.8,3.5,2.3s3.5,2.3,4.3,2.9
				c0.8,0.6,4,2.7,5,3.4c1,0.6,5.1,3.5,6.9,4.7l4.9,3.5c1.8,1.3,3.6,2.6,4,2.8s0.9,0.6,1.1,0.8s0.5,0.4,0.7,0.5
				c0.2,0.2,0.8,0.6,1.3,1c0.5,0.4,2.6,2.2,3.6,3.1s4,3.9,4.9,4.7c0.8,0.9,3.5,3.8,4.2,4.6c0.7,0.8,2.9,3.5,3.5,4.3
				c0.6,0.7,2.3,3,2.7,3.6c0.4,0.6,1.6,2.3,1.9,2.8c0.3,0.4,0.9,1.4,1,1.6c0.1,0.2,0.2,0.4,0.1,0.5s-0.3-0.1-0.5-0.4
				c-0.2-0.3-1.9-2.5-2.3-3c-0.4-0.5-2.1-2.5-2.6-3.2c-0.5-0.6-2.7-3.1-3.4-3.9s-3.3-3.5-4.1-4.3c-0.8-0.8-3.8-3.7-4.7-4.6
				s-3.8-3.4-4.3-3.8s-2.2-1.7-2.6-2s-1-0.8-1.4-1.1c-0.4-0.3-2.2-1.6-4-2.9l-4.9-3.5c-1.8-1.3-4.7-3.3-6.5-4.6c0,0-1.8-1.3-3.5-2.5
				c-1.7-1.2-4.3-3.1-5.8-4.1s-4.9-3.6-5.7-4.1C69.7-16.4,69.2-17,69.3-17.2z"/>
			<path class="st1" d="M65.2-16c0.4,0.3,2.7,1.9,4,2.8c1.3,0.9,7.2,5.1,9,6.4l5,3.6c1.8,1.3,4.2,3.1,5.3,3.9s4.8,3.5,5.4,4
				s2.6,1.9,3,2.2s1.2,0.9,1.6,1.3c0.4,0.4,1.8,1.4,2.9,2.4c1.2,1,4.6,4,5.1,4.5c0.5,0.5,2.4,2.3,2.9,2.8c0.5,0.5,2.7,2.6,3.7,3.6
				c1,1,4.2,4.2,5.1,5.2c0.9,0.9,4.2,4.5,5.7,6.2c0,0,3.8,4,4.8,5.2c1,1.2,0.5,1.5-0.5,0.4c-1-1.1-8.1-8.8-8.9-9.7
				c-0.8-0.8-4-4-4.9-4.9c-1-0.9-4-3.9-4.6-4.4c-0.5-0.5-2.4-2.2-2.9-2.7c-0.5-0.5-2.9-2.6-4.1-3.6s-4.6-3.8-5-4.1
				c-0.4-0.3-1.2-0.9-1.6-1.2c-0.5-0.3-1.3-1-1.9-1.4S91.2,4.3,90,3.4s-5.7-4.2-7.5-5.5l-4.9-3.6c-1.8-1.3-4.6-3.4-6.2-4.7
				c-1.7-1.3-5.3-4-5.8-4.4C65-15.1,64-15.9,63.8-16c-0.1-0.1-0.9-0.8-0.8-0.9C63.3-17.4,64.9-16.3,65.2-16z"/>
			<path class="st1" d="M72.1-5.6c0.2-0.2,0.9,0.3,1.6,1c0.7,0.7,6.9,6.3,8.6,7.8l9.9,8.2c1.7,1.4,4.5,3.5,6.2,4.8
				c1.7,1.2,7.2,5.3,8.7,6.4c1.5,1.1,6,4.5,7.1,5.4c1.1,0.9,3.9,3,4.4,3.4c0.6,0.4,1.5,1.4,1.4,1.6s-1-0.3-1.2-0.4
				c-0.2-0.2-2.5-1.8-3.4-2.4c-0.9-0.6-5.1-3.7-6.4-4.7c-1.4-1-6.7-4.9-8.3-6.1s-7.3-5.5-9-6.9c-1.6-1.3-6.9-5.7-8.3-7
				c-1.4-1.3-6-5.5-7.6-7c0,0-1.9-1.7-2.6-2.5S72-5.4,72.1-5.6z"/>
		</g>
	</g>
	<g>
		<g>
			<path class="st2" d="M191.8-26.5c-0.1-1.6-3.1-1-4.1-0.9c-0.9,0.2-1.9,0-2.8,0c-1.5-0.1-2.9,0-4.4,0.1c-7.1,0.4-14.1,2-20.6,4.7
				c-7,2.9-13.3,7-18.7,12c-2.8,2.6-5.3,5.3-7.7,8.3c-2.4,3.1-4.4,6.3-6.6,9.6c-8.5,13.4-16.4,27.2-23.9,41.3
				c-7.2,13.6-15.6,30-16.9,33.2c-0.7,1.5-2.8,6.1-2.5,6.7c0.6,0.7,1.5,1.5,1.9,1.5c0.8,0,1.2-1.5,1.4-2c1.3-2.9,9.2-19.4,16.1-33.1
				c3.6-7.1,7.3-14.1,11.1-21.1c1.8-3.3,3.6-6.7,5.5-10c0.3-0.5,0.4-0.7,1-0.7c0.5-0.1,1.1-0.1,1.6,0.2c1.4,0.6,1.6,2.7,1.6,3.9
				c0,0.4,0.1,0.8,0,1.2c0,0.2-0.1,0.6,0,0.7c0.1,0.2,0.5,0.3,0.7,0.2c0.2-0.1,0.1-0.6,0.2-0.8c0.3-1.4,0.2-2.9-0.2-4.2
				c-0.4-1.4-1.4-2.4-2.9-2.5c-0.5,0-0.8,0.1-0.6-0.5c0.2-0.4,0.4-0.8,0.6-1.2c1.8-3.1,3.5-6.2,5.4-9.2c0.3-0.6,0.4-1,1.1-1
				c0.5-0.1,0.8-0.2,1.3,0.1c1.1,0.4,1.2,2.2,1.1,3.2c0,0.4-0.3,1.5,0.1,1.7c0.5,0.2,0.7-0.3,0.7-0.7c0.3-1.5,0.4-3.6-0.7-4.8
				c-0.3-0.3-0.7-0.6-1.1-0.7c-0.3-0.1-0.7,0-1-0.1c-0.5-0.2,0.1-0.9,0.3-1.2c1-1.5,1.8-3.1,2.9-4.6c0.8-1,1.6-2,2.4-3.2
				c0.4-0.6,0.9-1.4,1.7-1.7c1.2-0.4,2.1,0.2,2.5,1.4c0.3,0.7,0.3,1.6,0.4,2.3c0,0.2,0,0.7,0.1,0.9c0.1,0.2,0.6,0.2,0.8,0
				c0.1-0.1,0-0.4,0-0.6c0-0.4,0-0.8,0-1.2c-0.1-0.8-0.2-1.5-0.5-2.3c-0.2-0.5-0.4-1-0.7-1.3c-0.2-0.1-0.4-0.2-0.6-0.3
				c-0.2-0.1-0.9,0-1-0.2c-0.2-0.3,0.7-1.3,1-1.4c0.8-1.1,1.8-2.1,2.7-3.1c0.6-0.6,1.2-1.2,1.9-1.7c0.6-0.6,1.3-1.4,2.2-1.7
				c1-0.4,2.2,0,2.7,0.8c0.9,1.3,0.8,3.4,0.7,5c0,0.1-0.1,0.4,0,0.5c0.2,0.3,0.5,0,0.6-0.2c0.3-0.3,0.2-0.7,0.3-1
				c0.2-1.6,0.2-3.4-0.6-4.7c-0.3-0.5-0.8-0.9-1.2-1.1c-0.1,0-1.4-0.5-1.4-0.3c0-0.2,0.4-0.4,0.5-0.5c0.4-0.3,0.7-0.6,1.1-0.8
				c0.6-0.5,1.3-1,2-1.5c1.2-0.8,2.5-1.7,3.8-2.5c0.9-0.6,2-1.1,3-0.1c0.7,0.7,0.9,1.8,1.1,2.8c0,0.2,0,0.8,0.2,1
				c0.3,0.4,0.6-0.1,0.7-0.4c0.1-0.7-0.1-1.6-0.3-2.2c-0.3-1-0.9-2.2-2-2.6c0.1,0,0.7-0.4,0.8-0.5c0.5-0.3,1.1-0.5,1.6-0.8
				c1.2-0.6,2.4-1.1,3.7-1.6c0.7-0.3,1.5-0.7,2.3-0.6c1,0.1,1.4,0.9,1.7,1.8c0.2,0.5,0.3,1,0.3,1.5c0,0.1,0,0.3,0.1,0.3
				c0.2,0.4,0.5,0.2,0.6-0.2c0.2-0.9,0-2-0.4-2.8c-0.2-0.5-0.5-0.7-0.8-1c-0.2-0.2-0.3-0.2,0-0.4c0.1-0.1,0.2-0.1,0.3-0.1
				c1-0.4,2.1-0.6,3.1-1c1.7-0.5,4.6-1.6,5.8,0.4c0.2,0.3,0.4,0.7,0.4,1.1c0,0.2-0.1,1.3,0.5,1c0.2-0.1,0.1-0.8,0.1-1
				c0-0.5-0.1-1.2-0.3-1.6c-0.1-0.2-0.2-0.4-0.4-0.5c-0.1-0.1-0.6-0.4-0.6-0.5c0-0.2,0.6-0.3,0.7-0.3c0.7-0.1,1.6-0.3,2.3-0.3
				c0.8,0,1.8,0,2.5,0.3c0.5,0.2,0.9,0.4,1.1,0.9c0.2,0.3,0.2,0.7,0.4,1c0.3,0.8,0.7,2,1.5,2.3c0.3,0.1,1,0.2,1.1-0.2
				c0.1-0.3-0.1-0.7-0.3-0.9c-0.4-0.7-1-1.3-1.6-2c-0.7-0.6-1.1-1.6-2.1-1.9c0.3,0.1,1-0.1,1.3,0c0.7-0.1,1.4,0,2.1-0.1
				c1.2,0,2.4-0.1,3.5,0.2C188.2-25.9,191.9-24.6,191.8-26.5C191.7-28.1,192-24.4,191.8-26.5z"/>
		</g>
		<g>
			<path class="st3" d="M126.9,20.2c0.1-0.3,0.2-0.9,0.2-1.2c0,0,0.4-5.5,4.5-5.1c2.8,0.3,3.1,1.3,3.2,4.4c0.2,3.3,0.8,4.5,0.8,4.5
				c0.2,0.3,0.1,0.4-0.3,0.3l-1.3-0.6c-0.3-0.1-0.6,0-0.6,0.4l-0.1,0.9c0,0.3-0.3,0.4-0.5,0.2l-1.1-1.2c-0.2-0.2-0.7-0.3-0.9-0.1
				l-1.5,1c-0.3,0.2-0.5,0.1-0.6-0.2l-0.1-1c-0.1-0.3-0.4-0.5-0.7-0.4l-1.4,0.3c-0.3,0.1-0.4-0.1-0.3-0.4L126.9,20.2z"/>
			<path class="st3" d="M139.6,1.5c1.5,0,3,1,3.3,3.4c0.4,3.1,1.5,4.8,1.5,4.8c0.1,0.2,0,0.4-0.3,0.3l-1.5-0.5
				c-0.3-0.1-0.5,0.1-0.5,0.4l0.2,1c0.1,0.3-0.1,0.5-0.4,0.3l-1.5-1.1c-0.3-0.2-0.7-0.1-0.8,0.2l-0.4,0.7c-0.2,0.3-0.5,0.3-0.7,0
				l-0.6-0.9c-0.2-0.2-0.6-0.3-0.9-0.2l-1.3,0.5c-0.3,0.1-0.4,0-0.2-0.3c0,0,0.8-1.3,0.9-2.8S136.2,1.6,139.6,1.5z"/>
			<path class="st3" d="M120.5,34.1c-0.3-2.6,0-6.3,3.3-6.3c3.5,0.1,4.3,2.2,4.3,4.3c0,3,0.9,5.5,0.9,5.5c0.1,0.3,0,0.5-0.3,0.3
				l-1.1-0.5c-0.3-0.2-0.7,0-0.8,0.3l-0.2,0.4c-0.1,0.3-0.4,0.4-0.7,0.2l-1-0.8c-0.3-0.2-0.6-0.2-0.8,0.1l-0.7,1
				c-0.2,0.3-0.5,0.3-0.7,0l-0.6-1c-0.2-0.3-0.5-0.3-0.8-0.1c0,0-1,0.8-1.7,0.9C119.6,38.2,120.6,35.8,120.5,34.1z"/>
			<path class="st3" d="M145.4-2.5c-0.2-2.3,0.1-5.3,3-5.3c3,0,3.6,1.9,3.5,3.8c0,2.5,0.6,4.6,0.6,4.6c0.1,0.3,0,0.5-0.3,0.3
				l-0.7-0.4c-0.3-0.2-0.7,0-0.8,0.3L150.6,1c-0.1,0.3-0.5,0.4-0.7,0.2l-0.7-0.7c-0.3-0.2-0.6-0.2-0.8,0.1l-0.6,0.7
				c-0.2,0.3-0.5,0.3-0.7,0l-0.3-0.8c-0.2-0.3-0.5-0.4-0.8-0.1c0,0-0.8,0.7-1.4,0.6C144.6,0.8,145.5-1,145.4-2.5z"/>
			<path class="st3" d="M160.6-11c-0.1-3.3-1.5-4.5-3.5-4.3c-2.3,0.3-2.8,2.4-2.7,4c0.1,1.5-0.2,3.2-0.2,3.2
				c-0.1,0.3,0.1,0.4,0.4,0.2l0.7-0.5c0.3-0.2,0.6-0.1,0.8,0.1l0.4,0.6c0.2,0.3,0.5,0.3,0.7,0l0.3-0.4c0.2-0.3,0.6-0.3,0.8-0.1
				l0.5,0.4c0.2,0.2,0.5,0.2,0.7-0.2l0.2-0.6c0.1-0.3,0.4-0.4,0.7-0.3c0,0,0.8,0.5,1.3,0.5C161.7-8,160.6-9.6,160.6-11z"/>
			<path class="st3" d="M163.9-16.1c0-2.5,1-3.9,2.5-3.9c1.5,0.2,2.6,1.3,2.5,3.8c-0.1,1.8,0.2,2.5,0.2,2.5c0.1,0.3,0,0.4-0.2,0.2
				l-0.9-0.6c-0.3-0.2-0.6-0.1-0.8,0.2l-0.5,0.9c-0.2,0.3-0.5,0.3-0.6,0l-0.4-0.7c-0.2-0.3-0.6-0.4-0.9-0.2l-0.8,0.5
				c-0.3,0.2-0.5,0.1-0.4-0.3C163.7-13.8,163.8-14.6,163.9-16.1z"/>
			<path class="st3" d="M177.9-19.9c0.1-2.4-0.9-3.5-2.5-3.5c-1.5,0-2.2,0.7-2.1,3.2c0,1.8-0.2,2.4-0.2,2.4c-0.1,0.3,0,0.4,0.3,0.2
				l0.5-0.4c0.3-0.2,0.7-0.2,0.9,0.1l0.6,0.7c0.2,0.3,0.5,0.2,0.6-0.1l0.2-0.5c0.1-0.3,0.5-0.5,0.8-0.3l1,0.5c0.3,0.1,0.4,0,0.3-0.3
				C178.2-17.7,178-18.4,177.9-19.9z"/>
		</g>
	</g>
</g>
</svg>
