<?xml version="1.0" encoding="utf-8"?>
<!-- Generator: Adobe Illustrator 19.1.0, SVG Export Plug-In . SVG Version: 6.00 Build 0)  -->
<svg version="1.1" id="Lager_1" xmlns="http://www.w3.org/2000/svg" xmlns:xlink="http://www.w3.org/1999/xlink" x="0px" y="0px"
	 viewBox="0 0 60 60" style="enable-background:new 0 0 60 60;" xml:space="preserve">
<style type="text/css">
	.st0{fill:#568644;}
	.st1{fill:#DBEDD8;}
</style>
<g>
	<path class="st0" d="M28.5,27.9c2.4,0.7,4.5-7.3,5.6-9.2c2-3.8,4.5-7.8,7.9-10.5c3.5-2.7,7.3-3.1,11.2-1c1.5,0.8,5.6,4.3,6.6,1.3
		c0.9-2.6-4.3-4.8-6.4-5.7c-3.9-1.7-8-1.8-11.8,0.3c-4.2,2.3-7.4,7-9.6,11.1C31.3,15.8,25.9,27.1,28.5,27.9z"/>
	<path class="st1" d="M35.5,43.7C40.8,35,45.9,21.9,34,16.3S15.5,17,12,24.5C7.2,34.9,0.6,42,0.6,42c-1,1.1-0.6,1.9,0.9,1.8l3.7-0.3
		c1.5-0.1,2.7,1,2.7,2.6l0,1.3c0,1.5,1.1,2.4,2.6,1.9l3.8-1.2c1.4-0.5,2.9,0.4,3.2,1.9l0.9,3.8c0.3,1.5,1.6,1.9,2.8,1l2.8-2.1
		c1.2-0.9,2.7-0.5,3.4,0.8c0,0,1.5,3.1,3.4,4.8c0.4,0.4,1.1,0.1,1.1-0.5C32.1,55.1,32.8,48.3,35.5,43.7z"/>
</g>
</svg>
