<?xml version="1.0" encoding="utf-8"?>
<!-- Generator: Adobe Illustrator 19.1.0, SVG Export Plug-In . SVG Version: 6.00 Build 0)  -->
<svg version="1.1" id="Lager_1" xmlns="http://www.w3.org/2000/svg" xmlns:xlink="http://www.w3.org/1999/xlink" x="0px" y="0px"
	 viewBox="0 0 60 60" style="enable-background:new 0 0 60 60;" xml:space="preserve">
<style type="text/css">
	.st0{fill:#568644;}
	.st1{fill:#DBEDD8;}
</style>
<g>
	<path class="st0" d="M28.5,22c-2.3,1.1-4.5-3.8-5.7-5.6c-2.4-3.1-5.3-6.1-8.8-8C11.3,7,8.4,6.8,5.6,8.1c-2.4,1.1-3.9,3.3-5.6,0.9
		c-0.5-2,2.3-3.7,4-4.7c3.1-1.8,6.6-2,9.9-0.5c4,1.7,7.3,4.6,9.8,7.9C24.7,12.8,31.2,20.7,28.5,22z"/>
	<path class="st1" d="M48.8,28.6C41.4,14.3,32.1,11.9,24,17.3c-9.5,6.2-7.1,16.9-2.7,23.7c4,6.4,5.8,14.7,5.8,14.7
		c0.3,1.7,1.3,1.8,2.1,0.3l2.2-3.9c0.8-1.5,2.6-1.9,4-0.9l2.8,1.9c1.3,0.9,2.8,0.3,3.1-1.3l0.5-2.6c0.3-1.7,1.9-2.6,3.4-2l3.1,1
		c1.6,0.5,2.8-0.4,2.6-2.1l-0.3-2.9c-0.2-1.7,1-2.9,2.7-2.7c0,0,4.5,0.5,6.7-1C59.9,39.6,51.9,34.6,48.8,28.6z"/>
</g>
</svg>
