<?xml version="1.0" encoding="utf-8"?>
<!-- Generator: Adobe Illustrator 19.1.0, SVG Export Plug-In . SVG Version: 6.00 Build 0)  -->
<svg version="1.1" id="Lager_1" xmlns="http://www.w3.org/2000/svg" xmlns:xlink="http://www.w3.org/1999/xlink" x="0px" y="0px"
	 viewBox="0 0 426.9 43.1" style="enable-background:new 0 0 426.9 43.1;" xml:space="preserve">
<style type="text/css">
	.st0{fill:#C6DE83;}
	.st1{fill:#568644;}
	.st2{fill:#EFC1A8;}
	.st3{fill:#6E6B81;}
	.st4{fill:#3E3A54;}
	.st5{fill:#EDE5C9;}
	.st6{fill:#07513F;}
	.st7{fill:#DBEDD8;}
	.st8{fill:#384222;}
	.st9{clip-path:url(#SVGID_2_);}
	.st10{clip-path:url(#SVGID_4_);}
	.st11{clip-path:url(#SVGID_4_);fill:#384222;}
	.st12{clip-path:url(#SVGID_4_);fill:#6E6B81;}
	.st13{clip-path:url(#SVGID_6_);}
	.st14{fill:#6E5224;}
	.st15{clip-path:url(#SVGID_6_);fill:#6E5224;}
	.st16{clip-path:url(#SVGID_6_);fill:#6E6B81;}
	.st17{clip-path:url(#SVGID_8_);}
	.st18{clip-path:url(#SVGID_8_);fill:#6E5224;}
	.st19{clip-path:url(#SVGID_8_);fill:#6E6B81;}
	.st20{clip-path:url(#SVGID_10_);}
	.st21{clip-path:url(#SVGID_10_);fill:#6E5224;}
	.st22{clip-path:url(#SVGID_10_);fill:#6E6B81;}
	.st23{clip-path:url(#SVGID_12_);}
	.st24{clip-path:url(#SVGID_12_);fill:#384222;}
	.st25{clip-path:url(#SVGID_12_);fill:#6E6B81;}
</style>
<g>
	<path class="st14" d="M30.4,14.6c-1.6-4.3-4.6-7.4-10.4-7.4c-6.5,0-12,4.6-12,14.3s5.5,14.3,12,14.3c5.8,0,8.8-3.1,10.4-7.4
		l7.1,1.8c-2,8.1-8.3,12.8-17.5,12.8C9.4,43.1,0,35.7,0,21.6C0,7.5,9.4,0,19.9,0c9.2,0,15.5,4.7,17.5,12.8L30.4,14.6z"/>
	<path class="st14" d="M53.5,0.5v34.9h17.9v7.2H45.7V0.5H53.5z"/>
	<path class="st14" d="M104.1,32.7H90.7l-3.1,9.9h-8.4L93.5,0.5h7.8l14.3,42.2h-8.4L104.1,32.7z M92.9,25.5h8.9l-4.5-14.6L92.9,25.5
		z"/>
	<path class="st14" d="M143.4,23.8l11.7,18.9h-8.7L135,24.5h-4.1v18.2h-7.8V0.5h15.4c8.4,0,12.8,5,12.8,12
		C151.3,18,148.5,22.2,143.4,23.8z M143.5,12.5c0-3.4-2.1-4.8-4.9-4.8h-7.6v9.5h7.6C141.4,17.2,143.5,15.9,143.5,12.5z"/>
	<path class="st14" d="M186.4,32.7h-13.4l-3.1,9.9h-8.4l14.3-42.2h7.8l14.3,42.2h-8.4L186.4,32.7z M175.3,25.5h8.9l-4.5-14.6
		L175.3,25.5z"/>
	<path class="st2" d="M210.1,30.2c0-6.3,3.9-10.7,8-13c-1.7-2.3-2.9-5.3-2.9-8.3c0-4.9,3.8-9,9.8-9c6.3,0,9.8,4.2,9.8,8.4
		c0,5.1-3.3,8.8-6.9,10.7l6.9,9.1c1.1-2.2,2-4.3,3.1-7.6l4.3,5.1c-0.7,2.8-1.7,5.7-3.1,8.1l6.7,8.8H237l-2.5-3.3
		c-2.9,2.3-6.6,3.7-11.1,3.7C215.9,43.1,210.1,38.4,210.1,30.2z M230.4,33.9l-8.5-11.3c-2.9,1.7-4.6,4.5-4.6,7.6
		c0,3.4,2.4,6.1,6.2,6.1C226.5,36.2,228.4,35.4,230.4,33.9z M221.8,9.5c0,1.8,0.8,3.2,1.9,4.6c1.9-0.8,4.3-2.3,4.3-4.9
		c0-1.7-1.2-2.8-3-2.8C223.1,6.4,221.8,7.6,221.8,9.5z"/>
	<path class="st14" d="M265.2,30.6c0.7,3.7,2.5,5.3,5.3,5.3c3.3,0,5.6-1.6,5.6-7.2V0.5h7.8v27.4c0,11.4-5.1,15.3-13.4,15.3
		c-7.4,0-12.2-4.1-13-10.9L265.2,30.6z"/>
	<path class="st14" d="M325.9,26.6c0,11.3-6.5,16.5-15.7,16.5c-9.2,0-15.7-5.2-15.7-16.5V0.5h7.8v26.3c0,6.1,2.6,9.2,7.9,9.2
		c5.3,0,7.9-3,7.9-9.2V0.5h7.8V26.6z"/>
	<path class="st14" d="M344.3,0.5v34.9h17.9v7.2h-25.7V0.5H344.3z"/>
	<path class="st14" d="M380.1,42.7h-7.8V0.5h7.8V42.7z"/>
	<path class="st14" d="M415.4,32.7H402l-3.1,9.9h-8.4l14.3-42.2h7.8l14.3,42.2h-8.4L415.4,32.7z M404.3,25.5h8.9l-4.5-14.6
		L404.3,25.5z"/>
</g>
</svg>
