<?xml version="1.0" encoding="utf-8"?>
<!-- Generator: Adobe Illustrator 19.1.0, SVG Export Plug-In . SVG Version: 6.00 Build 0)  -->
<svg version="1.1" id="Lager_1" xmlns="http://www.w3.org/2000/svg" xmlns:xlink="http://www.w3.org/1999/xlink" x="0px" y="0px"
	 viewBox="45 -32 150 125" style="enable-background:new 45 -32 150 125;" xml:space="preserve">
<style type="text/css">
	.st0{fill:#384222;}
	.st1{fill:#EDE5C9;}
</style>
<g>
	<g>
		<path class="st0" d="M116.4,2.9c-0.8,1-0.2,2.2-0.2,2.2c0.2,0.5,0.3,1.2,0.1,1.7c0,0-0.3,0.8-0.7,2.1c-0.8,2-1.8,4.8-2.7,7.6
			c-0.8,2-1.8,4.7-1.8,4.7c-0.2,0.5-0.3,0.4-0.3-0.1c0,0,0.2-3,0.3-5.3s0.3-4.8,0.5-7.2c0.5-9.8,1.2-18.7,1.2-18.7
			c0.1-0.5-0.1-1-0.4-1c-0.2,0-0.4,0.4-0.5,0.8c0,0-0.8,8.8-1.5,18.6c-0.3,2.5-0.5,4.9-0.7,7.3c-0.2,2.3-0.4,4.4-0.5,6.3
			c-0.2,1.6-0.1,3.3-0.1,3.3c-0.1,0.5-0.2,0.5-0.5,0.1c0,0-1-2-2.1-3.9c-2.1-3.9-5-9-7.9-14c-2.9-5.1-5.8-10.2-7.9-14
			c-2.2-3.8-3.2-5.6-3.2-5.6c-0.3-0.5-0.6-0.7-0.8-0.5c-0.2,0.2-0.2,0.5,0,1c0,0,1,1.8,3.1,5.6c2.2,3.8,5,9,7.9,14
			c2.8,5.2,5.7,10.3,7.8,14c0.3,0.7,0.6,1.2,0.6,1.2c0.3,0.5,0.2,0.5-0.1,0.1c0,0-2-2.2-3.5-3.8c-1.9-2-3.9-4-5.3-5.6
			c-1.4-1.4-1.8-1.8-1.8-1.8c-0.3-0.3-0.8-0.5-1-0.4s0,0.6,0.2,1c0,0,0.3,0.3,1.7,1.9c1.4,1.6,3.2,3.6,5.2,5.7
			c1.9,2,4.5,4.7,4.5,4.7c0.3,0.3,0.3,0.5-0.2,0.3c0,0-1.5-0.8-2.9-1.5c-4.3-2.2-9.9-5.1-15.6-8c-5.6-2.9-11.4-5.8-15.6-7.9
			s-6.3-3.2-6.3-3.2c-0.4-0.2-0.9-0.3-1,0c-0.1,0.3,0.2,0.6,0.6,0.8c0,0,2,1.1,6.2,3.4S80.9,14,86.5,17c5.7,2.9,11.4,6,15.5,8.1
			c2.1,1.1,3.9,2,5.2,2.6c0.1,0,0.1,0,0.1,0c0.1,0-0.2,0.2-0.7,0.1c0,0-1.7,0.2-3.6,0.6c-1,0.1-2,0.4-3,0.6
			c-1.1,0.1-2.2,0.4-3.4,0.7c-2.3,0.5-4.9,1.1-7.3,1.5c-10,2.1-19.1,4-19.1,4c-0.5,0.1-0.8,0.4-0.8,0.6s0.6,0.4,1,0.2
			c0,0,9.2-1.6,19.2-3.4c2.6-0.4,5-0.9,7.5-1.3c1.2-0.3,2.3-0.4,3.4-0.7s2.1-0.4,3-0.6c1-0.2,1.8-0.4,1.8-0.4
			c0.5-0.1,0.5,0.1,0.2,0.4c0,0-3.4,2.6-5.8,4.4c-2.4,1.8-4.8,3.6-6.5,5.1c-0.9,0.7-1.4,1-1.4,1c-0.3,0.3-1.2,0.6-1.6,0.8
			c0,0-4.7,1.2-2.8,3.4c1,1.1,3.6-2.1,3.6-2.1c0.3-0.4,0.9-1,1.3-1.3c0,0,0.6-0.4,1.5-1.1c1.8-1.2,4.2-3,6.8-4.8
			c2.4-1.8,4.8-3.6,6.6-5c0.7-0.2,1.3-0.8,1.3-0.8c0.3-0.3,1-0.4,1.4,0c0,0,6.5,5.1,15,11.6c9.6,7.4,22.4,17.2,35.1,27
			c25.6,19.7,30.3,23,30.3,23c0.4,0.3,1,0.2,1.2-0.2l0.1-0.1c0.3-0.4,0.2-1-0.2-1.2c0,0-4.7-3.4-30.3-23c-12.6-9.9-25.5-19.7-35-27
			c-9.4-7.2-15.3-11.7-15.3-11.7c-0.4-0.3-0.7-0.5-0.7-0.7c0,0,0.2-0.5,0.4-0.9c0,0,0.3-0.7,0.8-1.8c0.7-2.1,1.8-4.8,2.7-7.7
			c1-2.8,1.9-5.6,2.7-7.7c0.5-1.3,0.7-2.1,0.7-2.1c0.2-0.5,0.6-1,1.1-1.1c0,0,0,0,0.4-0.4C120.8,3.3,118.6,0,116.4,2.9z"/>
	</g>
	<path class="st1" d="M86.6,5.8C85.8,2.4,85.2-5,85.1-6.9c0-0.1,0.2-0.3,0.2-0.2c1.2,1.7,5.6,8,6.1,11.6c0,0.2,0.3,0.2,0.4,0.1
		c1.2-1.2,5.3-5.3,10.5-7.9c0.1,0,0.3,0.1,0.2,0.2c-1.2,1.8-5.3,8.4-7.6,10.6c-0.1,0.1-0.1,0.4,0.2,0.4c1.6-0.1,6.1,0.1,11.9,2.5
		c0.1,0,0,0.2-0.1,0.3c-1.8,0.5-9.4,2.4-12.6,2.2c-0.2,0-0.4,0.2-0.3,0.3c0.3,1.5,1.5,7.1,1.3,13.6c0,0.1-0.2,0.2-0.2,0
		c-0.9-1.3-4.3-6.7-6.7-11.3c0-0.1-0.1-0.1-0.1-0.1c-1.1,0.5-9.6,4.3-14.9,5.1c-0.2,0-0.8,0-0.2-0.5c2-1.8,8-7.1,11.3-8.9
		c0.2-0.2,0.7-0.3-0.1-0.6c-1.9-0.5-7-2.9-11.2-6.6c-0.1-0.1,0-0.2,0.1-0.3c1.8,0.2,8.6,0.8,12.8,2.5C86.8,6.5,86.6,6,86.6,5.8z"/>
	<path class="st1" d="M96-15.7c2.5,0.8,7.3,3.6,11.7,3.2c0.6-0.1,0.4,0.2,0.3,0.5c-0.7,1.5-2.6,6.3-2.7,12.3c0,0.4-0.4,1.2,0.5,0.2
		c1.5-1.7,4.8-6.4,5.9-9.5c0.2-0.5,0.4-0.4,1.2,0.6c1.2,1.6,4.2,5.2,8.4,8.3c0.3,0.2,0.9,0.3,0.6-0.4c-1.3-2.6-4.1-9.6-5.6-11.9
		c-0.2-0.2-0.5-0.8,0.3-0.5c1.7,0.5,5.3,0.2,9.6,0.6c0.9,0.1,1.6-0.4,1.2-0.5c-2.4-1.2-7.4-3.6-9.9-4.3c-0.3-0.1-0.9,0-0.2-0.5
		c0.9-0.6,2.4-2.7,4.3-8.9c0.3-0.8,0.1-1.1-0.1-1c-1.8,1.4-5.7,4.5-7.9,7.9c-0.4,0.7-0.5,0.2-0.6,0c-0.8-1.6-4-7-7-10.2
		c-0.7-0.8-0.6,0-0.6,0.3c0.7,2.4,0.9,7,3,11.2c0.2,0.2-0.1,0.4-0.3,0.4c-2,0.2-7.6,0-12.3,1.5C95.1-15.9,95.8-15.8,96-15.7z"/>
	<path class="st1" d="M88.2-9.3c-0.6,0-8.2-0.2-16-5.7c-0.3-0.1-0.8-0.5,0.2-0.5c1.8,0,6.3,0.1,9.8,0.6c0.3,0.1,0.8,0.3,0.4-0.6
		c-1-1.9-4.1-7.1-4.7-10.3c0-0.2-0.1-0.7,0.5-0.2c1.4,1.3,5.5,5.1,7.4,7.4c0.2,0.2,0.6,0.9,0.6-0.2c-0.2-2.2,0-7.8,0.4-10.9
		c0-0.1,0.2-0.2,0.2,0c0.7,1.7,3.2,7.5,3.5,10.6c0,0.2,0.1,1,0.4,0.1c0.7-1.7,3.4-5.8,5.8-7.7c0.1-0.1,0.2,0,0.3,0.1
		C96.4-24.4,94.1-13.2,88.2-9.3L88.2-9.3z"/>
	<path class="st1" d="M67.2,5.9c0.5-1.2,3.7-9.2,1.9-15.1c0-0.4-0.4-1-0.6,0C67.7-7.3,65-2.5,65,0c0,0.1-0.1,0.1-0.1,0
		c-1.1-1.5-6.8-9.5-9-10.6c-0.1-0.1-0.2,0-0.2,0.2C56-8.8,58-0.5,60.2,2.4c0,0.1,0,0.1-0.1,0.1C58.5,2.2,51.1,0.1,48.4,0
		c-0.1,0-0.1,0.1-0.1,0.3c1.4,1,7,4.9,11,6.1C60.2,6.7,60,7,59.6,7.3c-2,1.1-7,4-10.3,6.8c-0.2,0.2-0.1,0.5,0.2,0.5
		c3.1-0.5,13.4-2.8,17.7-8.3C67.1,6.1,67.1,6.1,67.2,5.9z"/>
	<path class="st1" d="M51,39.3c1,0.2,5.6,0.9,12.3-0.7c0.2,0,0.4,0.2,0.3,0.3c-0.6,1.4-2.2,6-2,12.3c0,0.2,0.3,0.3,0.4,0.2
		c1.3-1.8,4.7-7.1,6-11.8c0.1-0.1,0.2-0.3,0.4-0.2c1.4,0.6,7.4,2.8,11.9,3.5c0.1,0,0.1-0.1,0.1-0.1c-1-1.1-5.5-6.2-9.1-7.5
		c-0.1,0-0.1-0.1,0-0.2c1.1-0.4,5.5-2.3,10.9-7c0.2-0.2,0.5-0.7-0.2-0.5c-2.6,0.4-9.3,1.8-12,3.8c-0.1,0-0.1,0-0.1-0.1
		c0.1-1.3,0.7-7.3,0.3-11.5c0-0.2-0.3-0.3-0.4-0.1c-1,1.8-4.3,7.4-5,10.4c-0.1,0.3-0.4,0.4-0.7,0.2c-1.6-1.2-6.6-4.4-11.2-5.7
		c-0.1,0-0.2,0.2-0.1,0.1c0.8,1.2,3.8,5.6,8.8,9c0.3,0.2,0.2,0.5,0,0.6c-1.8,0.6-6.8,2.4-10.4,4.8C50.9,39.1,50.9,39.2,51,39.3z"/>
	<path class="st0" d="M87.8,8.6c-1.6,2,1.3,6.2,3.9,3.9C94.3,10.2,90.5,5.1,87.8,8.6z"/>
	<path class="st0" d="M109.6-16c-0.2,1.2,1.4,3.3,3.1,2.9c1.7-0.5,2.6-3.4,1.3-4.5C111.5-19.8,109.9-17.5,109.6-16z"/>
	<path class="st0" d="M65.7,37.4c2.4,1.6,4.7-3.3,2.3-4.8C65,30.8,61.5,34.8,65.7,37.4z"/>
</g>
</svg>
