<?xml version="1.0" encoding="utf-8"?>
<!-- Generator: Adobe Illustrator 19.1.0, SVG Export Plug-In . SVG Version: 6.00 Build 0)  -->
<svg version="1.1" id="Lager_1" xmlns="http://www.w3.org/2000/svg" xmlns:xlink="http://www.w3.org/1999/xlink" x="0px" y="0px"
	 viewBox="-45 -32.8 150 125" style="enable-background:new -45 -32.8 150 125;" xml:space="preserve">
<style type="text/css">
	.st0{fill:#384222;}
	.st1{fill:#EDE5C9;}
	.st2{fill:#ECE4C8;}
</style>
<g>
	<g>
		<g>
			<path class="st0" d="M11-2.2c-0.7,0.7-0.4,1.7-0.4,1.7c0.1,0.4,0.1,1-0.1,1.4c0,0-0.3,0.6-0.8,1.6C8.9,4,7.8,6.2,6.8,8.3
				C6,9.8,4.9,11.9,4.9,11.9c-0.2,0.4-0.3,0.3-0.2-0.1c0,0,0.5-2.4,0.8-4.2c0.3-1.8,0.7-3.8,1.1-5.7C8-5.9,9.4-12.9,9.4-12.9
				c0.1-0.4,0-0.8-0.2-0.8s-0.4,0.3-0.5,0.6c0,0-1.5,7-3.1,14.7C5.1,3.6,4.7,5.5,4.3,7.4c-0.4,1.8-0.8,3.5-1,5C3,13.7,2.9,15,2.9,15
				c-0.1,0.4-0.2,0.4-0.4,0c0,0-0.6-1.7-1.3-3.3C-0.1,8.4-1.9,4-3.7-0.3c-1.8-4.4-3.6-8.7-4.9-12c-1.4-3.3-2-4.8-2-4.8
				c-0.2-0.4-0.4-0.6-0.6-0.5s-0.2,0.4-0.1,0.8c0,0,0.6,1.5,1.9,4.8C-8-8.7-6.3-4.3-4.5,0C-2.8,4.4-1,8.8,0.3,12
				c0.2,0.6,0.4,1,0.4,1c0.2,0.4,0.1,0.4-0.1,0.1c0,0-1.4-2-2.4-3.4c-1.3-1.8-2.7-3.6-3.7-5c-1-1.3-1.3-1.6-1.3-1.6
				c-0.2-0.3-0.6-0.5-0.8-0.4c-0.2,0.1-0.1,0.5,0.1,0.8c0,0,0.2,0.3,1.2,1.7c1,1.4,2.2,3.2,3.6,5.1c1.3,1.8,3.1,4.2,3.1,4.2
				c0.2,0.3,0.2,0.4-0.2,0.2c0,0-1.1-0.8-2.2-1.5C-5.2,11-9.4,8.1-13.7,5.2c-4.2-2.9-8.5-5.8-11.7-7.9c-3.2-2.1-4.7-3.2-4.7-3.2
				c-0.3-0.2-0.7-0.3-0.8-0.1c-0.1,0.2,0.1,0.5,0.4,0.7c0,0,1.5,1.1,4.6,3.3c3.1,2.2,7.4,5.1,11.6,8.1C-10,9-5.8,12-2.7,14.1
				c1.6,1.1,2.9,2,3.9,2.6c0.1,0,0.1,0,0.1,0c0.1,0-0.2,0.1-0.6,0c0,0-1.4,0-2.9,0.1c-0.8,0-1.6,0.1-2.5,0.2c-0.9,0-1.8,0.1-2.8,0.2
				c-1.9,0.2-4,0.4-6,0.5c-8.2,0.7-15.7,1.3-15.7,1.3c-0.4,0-0.7,0.2-0.7,0.4s0.4,0.4,0.8,0.3c0,0,7.5-0.4,15.7-0.8
				c2.1-0.1,4.1-0.2,6.1-0.3c1-0.1,1.9-0.1,2.8-0.2c0.9-0.1,1.7-0.1,2.5-0.2c0.8-0.1,1.5-0.1,1.5-0.1c0.4,0,0.4,0.1,0.1,0.3
				c0,0-3,1.7-5.1,2.9c-2.1,1.2-4.2,2.4-5.7,3.4c-0.8,0.5-1.2,0.7-1.2,0.7c-0.3,0.2-1,0.4-1.4,0.5c0,0-3.9,0.5-2.6,2.4
				c0.7,1,3.1-1.3,3.1-1.3c0.3-0.3,0.8-0.7,1.2-0.9c0,0,0.5-0.3,1.3-0.7c1.6-0.8,3.7-2,5.9-3.2c2.1-1.2,4.2-2.4,5.8-3.3
				C1.5,18.8,2,18.4,2,18.4c0.3-0.2,0.8-0.2,1.1,0.1c0,0,4.7,4.7,10.8,10.8c6.9,6.9,16.2,16,25.4,25.1c18.5,18.3,36.5,36,36.5,36
				c0.3,0.3,0.8,0.3,1,0l0.1-0.1c0.3-0.3,0.3-0.8,0-1c0,0-18-17.8-36.5-36C31.3,44.1,22,35,15.1,28.2C8.3,21.5,4,17.3,4,17.3
				c-0.3-0.3-0.5-0.5-0.5-0.6c0,0,0.2-0.4,0.4-0.7c0,0,0.3-0.5,0.8-1.4c0.8-1.6,1.9-3.7,2.9-5.9c1.1-2.1,2.1-4.3,2.9-5.9
				c0.5-1,0.8-1.6,0.8-1.6c0.2-0.4,0.6-0.7,1-0.8c0,0,0,0,0.4-0.3C14.5-1.4,13.1-4.3,11-2.2z"/>
		</g>
		<path class="st1" d="M-13.1-2.9c-0.3-2.8,0-8.7,0.1-10.3c0-0.1,0.2-0.2,0.2-0.1c0.8,1.5,3.7,7,3.7,9.9c0,0.2,0.2,0.2,0.3,0.1
			C-7.7-4.1-4-7,0.4-8.6c0.1,0,0.2,0.1,0.1,0.2c-1.1,1.3-5.1,6.2-7.1,7.7c-0.1,0.1-0.1,0.3,0.1,0.3c1.3,0.1,4.9,0.7,9.3,3.2
			C2.9,2.8,2.8,3,2.7,3C1.2,3.2-5.1,4-7.6,3.5c-0.2,0-0.3,0.1-0.3,0.2c0.1,1.2,0.5,5.8-0.3,11c0,0.1-0.2,0.1-0.2,0
			C-9,13.6-11.2,8.9-12.6,5c0-0.1-0.1-0.1-0.1-0.1c-0.9,0.3-8.1,2.5-12.4,2.6c-0.2,0-0.6-0.1-0.1-0.4c1.8-1.2,7.1-4.9,9.9-6
			c0.2-0.1,0.6-0.2,0-0.5c-1.5-0.6-5.3-3-8.3-6.4c-0.1-0.1,0-0.2,0.1-0.2c1.4,0.3,6.8,1.5,10,3.3C-13-2.3-13.1-2.7-13.1-2.9z"/>
		<path class="st1" d="M-3.4-19.1c1.9,0.9,5.5,3.6,9,3.7c0.5,0,0.3,0.2,0.2,0.4c-0.7,1.1-2.7,4.8-3.4,9.6c0,0.3-0.4,0.9,0.4,0.2
			c1.4-1.2,4.5-4.6,5.7-7c0.2-0.4,0.4-0.3,0.9,0.6c0.8,1.4,2.8,4.6,5.9,7.5c0.2,0.2,0.7,0.3,0.5-0.3c-0.8-2.2-2.3-8.1-3.3-10.1
			c-0.1-0.2-0.3-0.7,0.3-0.4c1.3,0.6,4.2,0.7,7.6,1.4c0.7,0.2,1.3-0.2,1-0.3c-1.8-1.2-5.6-3.6-7.5-4.4c-0.2-0.1-0.7-0.1-0.1-0.4
			c0.8-0.4,2.2-1.9,4.3-6.7c0.3-0.6,0.2-0.9,0-0.8c-1.6,0.9-5,3-7.1,5.5c-0.4,0.5-0.4,0.1-0.5-0.1c-0.5-1.4-2.5-6-4.6-8.9
			c-0.5-0.7-0.5-0.1-0.5,0.2c0.3,2,0,5.7,1.3,9.3c0.1,0.2-0.1,0.3-0.3,0.3c-1.6,0-6.1-0.8-10,0C-4.1-19.4-3.6-19.2-3.4-19.1z"/>
		<path class="st1" d="M-10.3-14.8c-0.5-0.1-6.5-1-12.2-6.2c-0.2-0.1-0.6-0.5,0.2-0.4c1.4,0.2,5,0.7,7.8,1.5
			c0.2,0.1,0.6,0.3,0.4-0.4c-0.6-1.6-2.6-6.1-2.7-8.7c0-0.2,0-0.6,0.4-0.1c1,1.2,3.9,4.6,5.2,6.7c0.1,0.2,0.4,0.8,0.5-0.1
			c0.1-1.8,0.8-6.2,1.4-8.7c0-0.1,0.2-0.1,0.2,0c0.4,1.4,1.8,6.3,1.7,8.8c0,0.2,0,0.8,0.3,0.1c0.7-1.3,3.3-4.3,5.4-5.6
			c0.1-0.1,0.2,0,0.2,0.1C-2.2-26-5.2-17.3-10.3-14.8C-10.3-14.8-10.3-14.8-10.3-14.8z"/>
		<path class="st1" d="M-28.6-4.7c0.5-0.9,3.9-7,3-11.9c0-0.3-0.2-0.8-0.5-0.1c-0.8,1.5-3.4,5-3.7,7c0,0.1-0.1,0.1-0.1,0
			c-0.7-1.3-4.5-8.3-6.1-9.4c-0.1-0.1-0.2,0-0.2,0.1c0.1,1.4,0.9,8.2,2.3,10.8c0,0.1,0,0.1-0.1,0.1c-1.2-0.5-6.9-2.9-9.1-3.2
			c-0.1,0-0.1,0.1-0.1,0.2c1,0.9,5.1,4.6,8.2,6c0.7,0.3,0.5,0.5,0.2,0.7c-1.7,0.7-6,2.5-8.9,4.4c-0.2,0.1-0.1,0.4,0.1,0.4
			c2.5-0.1,11-0.9,15-4.9C-28.7-4.6-28.7-4.6-28.6-4.7z"/>
		<path class="st1" d="M-44.9,20.4c0.8,0.3,4.4,1.3,9.9,0.7c0.2,0,0.3,0.2,0.2,0.3c-0.6,1.1-2.4,4.6-2.8,9.6c0,0.2,0.2,0.3,0.3,0.2
			c1.2-1.3,4.5-5.2,6-8.8c0.1-0.1,0.2-0.2,0.3-0.1c1.1,0.6,5.6,3,9.2,4c0.1,0,0.1-0.1,0.1-0.1c-0.7-1-3.8-5.5-6.5-6.9
			c-0.1,0-0.1-0.1,0-0.2c0.9-0.2,4.6-1.3,9.4-4.5c0.2-0.1,0.5-0.5-0.1-0.4c-2.1,0.1-7.6,0.5-10,1.8c-0.1,0-0.1,0-0.1-0.1
			c0.2-1,1.3-5.8,1.4-9.2c0-0.2-0.2-0.3-0.3-0.1c-1,1.3-4.2,5.5-5,7.8c-0.1,0.2-0.4,0.3-0.6,0.1c-1.2-1.1-4.8-4.2-8.4-5.7
			c-0.1,0-0.2,0.1-0.1,0.1c0.5,1,2.5,4.9,6.1,8.1c0.2,0.2,0.1,0.4-0.1,0.5c-1.5,0.3-5.7,1.2-8.8,2.8C-45,20.2-45,20.3-44.9,20.4z"/>
		<path class="st0" d="M-12.4-0.5C-13.9,0.9-12,4.6-9.7,3S-9.9-3-12.4-0.5z"/>
		<path class="st0" d="M7.5-18c-0.3,0.9,0.8,2.8,2.2,2.6s2.4-2.5,1.5-3.5C9.4-20.8,7.9-19.2,7.5-18z"/>
		<path class="st0" d="M-33,20.3c1.8,1.5,4.1-2.2,2.3-3.6C-32.9,15-36.1,17.8-33,20.3z"/>
	</g>
	<g>
		<g>
			<path class="st0" d="M65.5,21.6c1.8,0.1,3.6,0.2,5.5,0.3c7.5,0.5,14.3,0.9,14.3,0.9c0.4,0,0.7-0.1,0.8-0.3c0-0.2-0.3-0.4-0.7-0.4
				c0,0-6.7-0.6-14.2-1.2c-1.9-0.2-3.7-0.3-5.5-0.5c-1.8-0.2-3.4-0.3-4.8-0.4c-1.2-0.1-2.2-0.1-2.2-0.1c-0.4,0-0.4-0.2-0.1-0.3
				c0,0,1.7-0.8,3.4-1.6c3.4-1.6,7.9-3.9,12.3-6c4.5-2.2,9-4.4,12.3-6.1c3.4-1.7,4.9-2.5,4.9-2.5c0.4-0.2,0.6-0.5,0.5-0.7
				c-0.1-0.2-0.5-0.2-0.8,0c0,0-1.6,0.8-5,2.4c-3.4,1.6-7.9,3.8-12.4,6c-4.5,2.2-9,4.3-12.4,6c-1.4,0.7-2.8,1.4-2.8,1.4
				c-0.4,0.2-0.4,0.1-0.1-0.2c0,0,0.2-0.2,0.6-0.7c1.7-1.7,3.9-4.1,6.1-6.4c2.2-2.4,4.3-4.8,6-6.6c1.6-1.8,2.2-2.5,2.2-2.5
				c0.3-0.3,0.4-0.7,0.2-0.8s-0.5,0-0.8,0.3c0,0-0.6,0.6-2.3,2.4c-1.7,1.7-3.9,4.1-6.1,6.4c-2.2,2.3-4.4,4.7-6,6.5
				c-0.1,0.1-0.1,0.1-0.1,0.1c-0.1,0.1-0.1-0.1,0.1-0.4c0,0,0.7-1.3,1.3-2.5c1.7-3.4,3.9-8,6.2-12.5c2.2-4.6,4.5-9.1,6.2-12.5
				c1.7-3.4,2.5-5.1,2.5-5.1c0.2-0.4,0.2-0.7,0-0.8s-0.5,0.1-0.7,0.5c0,0-0.8,1.6-2.6,5c-1.8,3.4-4,7.9-6.3,12.5
				c-2.3,4.5-4.6,9.1-6.3,12.5c-0.8,1.7-1.5,3.1-2,4.2c0,0,0,0,0,0c0,0.1,0-0.2,0-0.6c0,0,0.1-1.3,0.1-2.6c0-0.9,0-1.8,0-2.8
				c0-1-0.1-2-0.1-3.1c-0.1-2.1-0.2-4.4-0.3-6.7c-0.3-9.1-0.5-17.5-0.5-17.5c0-0.4-0.2-0.7-0.4-0.7c-0.2,0-0.4,0.3-0.4,0.7
				c0,0,0,8.4,0,17.5c0,2.3,0,4.6,0,6.7c0,1.1,0,2.1,0,3.1c0,1,0,1.9,0,2.8c0,0.9,0.1,1.7,0.1,1.7c0,0.4-0.1,0.4-0.2,0
				c0,0-1.1-2.8-1.9-4.7c-0.9-2.1-1.8-4.2-2.5-5.8c-0.3-0.8-0.5-1.2-0.5-1.2c-0.2-0.4-0.3-1-0.3-1.4c0,0,0.2-2.9-1.6-2.7
				c-1.8,0.2,0.4,3,0.4,3c0.2,0.3,0.6,0.9,0.7,1.3c0,0,0.2,0.5,0.5,1.3c0.6,1.6,1.4,3.7,2.3,5.8c0.9,2.1,1.7,4.2,2.5,5.8
				c0.4,0.9,0.6,1.4,0.6,1.4c0.2,0.4,0.1,0.9-0.2,1.2c0,0-4.1,4.2-10,10.1C38.6,37,30.2,45.6,21.8,54.2
				C4.9,71.4-11.5,88.1-11.5,88.1c-0.3,0.3-0.3,0.8,0,1l0.1,0.1c0.3,0.3,0.8,0.3,1,0c0,0,16.4-16.7,33.2-33.9
				c8.4-8.6,16.9-17.2,23.2-23.7c5.6-5.8,9.8-10.1,9.8-10.1c0.3-0.3,0.8-0.3,1.1-0.1c0,0,0.3,0.2,1.2,0.7c1.2,0.7,2.9,1.6,4.6,2.5
				c1.7,0.9,3.3,1.8,4.6,2.5c0.6,0.3,0.9,0.5,0.9,0.5c0.4,0.2,0.8,0.6,1.1,0.9c0,0,1.3,1.8,2,1.5c0.6-0.3,0.7-2-0.1-2.5
				c-0.6-0.3-1.3-0.3-1.3-0.3c-0.4,0-1-0.1-1.4-0.4c0,0-0.2-0.1-0.8-0.5c-1.2-0.7-2.9-1.6-4.5-2.6c-1.7-0.9-3.3-1.9-4.5-2.5
				c-0.1-0.1-0.1-0.1-0.1-0.1c-0.1-0.1,0.1-0.1,0.5,0c0,0,0.7,0.1,1.7,0.2C62.1,21.5,63.7,21.5,65.5,21.6z"/>
		</g>
		<g>
			<path class="st2" d="M77.7-2c1.4-2.2,3.5-7.1,4.2-8.8c0.1-0.2-0.1-0.3-0.3-0.2C80-9.8,75.2-6.2,74-3.8c-0.1,0.1-0.3,0.1-0.3,0
				c-0.6-1.2-2.6-5.3-5.8-8.6c-0.1-0.1-0.4,0-0.3,0.2c0.4,2,1.8,7.9,3,9.9c0.1,0.1,0,0.3-0.2,0.3c-1.1-0.2-4.5-0.6-9.5-0.2
				c-0.5,0-0.2,0.3-0.1,0.4c1.7,0.9,6.5,3.2,8.8,3.7c0.1,0,0.2,0.2,0.1,0.3c-0.5,1-2.4,5.1-3.3,10.4c-0.1,0.5,0.2,0.3,0.3,0.2
				c1-0.7,4.1-3.9,6.8-7.4c0.1-0.1,0.2-0.1,0.3,0c0.9,0.7,5.4,4.2,8.9,6c0.2,0.1,0.3-0.1,0.2-0.3c-0.8-1.5-3.4-6.1-5.4-8
				c-0.1-0.1,0-0.3,0.1-0.3c1.4-0.1,6-0.4,10.3-2.1c0.2-0.1,0.2-0.3,0-0.4c-1.6-0.5-6.7-1.8-10.1-1.7C77.7-1.7,77.6-1.8,77.7-2z"/>
			<path class="st2" d="M96.2,34c-0.7-1.7-2.9-7.1-5.4-9.9c-0.1-0.1,0-0.3,0.1-0.3c1.1-0.3,5.2-1.7,9.2-4.9c0.2-0.2,0.1-0.5-0.2-0.5
				c-2,0-7,0.1-9.3,1.4c-0.1,0.1-0.3,0-0.3-0.2c0.3-1.4,1.4-6.2,0.9-10.8c0-0.2-0.3-0.2-0.4-0.1c-0.9,1.9-4,8.1-4.6,10.3
				c0,0.1-0.2,0.2-0.3,0.1c-0.8-1-3.2-4.4-5.6-7.3c-0.1-0.2-0.4,0-0.3,0.2c0.5,2.1,2,7.7,3,9.6c0,0.1,0,0.2-0.1,0.2
				c-0.6,0.3-2.9,1.3-8.5,3.5c-0.2,0.1-0.2,0.3,0,0.4c1.9,0.2,7,0.7,9.7-0.2c0.1-0.1,0.3,0.1,0.2,0.2c-0.5,1.4-2,6.2-2.2,9.9
				c0,0.2,0.2,0.3,0.3,0.1c1-1.7,4-6.5,5.4-8.8c0.1-0.1,0.2-0.1,0.3,0c0.9,1,5.5,5.9,7.7,7.6C96,34.3,96.2,34.2,96.2,34z"/>
			<path class="st2" d="M73.8-14.4c1.2,0.5,6.8-0.4,12.4-4.5c0.1-0.1,0.1-0.3-0.1-0.3c-1.4,0-5,0.1-7.7,0.6c-0.2,0-0.3-0.1-0.2-0.3
				c0.8-1.1,3.1-4.7,3.9-6.9c0.1-0.2-0.1-0.3-0.3-0.2c-1.2,0.8-4.7,3-6.1,4.8c-0.1,0.1-0.3,0.1-0.3-0.1c0-1.5-0.2-5.7-0.5-8.3
				c0-0.2-0.3-0.2-0.4,0C73.8-28,72.1-24,72-21.8c0,0.2-0.2,0.2-0.3,0.1c-0.7-1.3-2.6-4.2-4.4-5.7c-0.1-0.1-0.3,0-0.3,0.2
				c0.5,2.1,1.9,9.7,6.2,12.6C73.4-14.6,73.7-14.4,73.8-14.4z"/>
			<path class="st0" d="M76.2,0.5c0.1-2.1-3.8-2.7-4.4,0.2C71.3,3.6,76,4.2,76.2,0.5z"/>
			<path class="st0" d="M88.4,23.9c0.9-0.5,1.3-2.6,0.1-3.4c-1.2-0.8-3.4,0.3-3.4,1.6C85.1,24.6,87.3,24.5,88.4,23.9z"/>
			<path class="st2" d="M90.9,2.6c0-0.5-0.5-7.3,2.3-11c0.1-0.1,0.3-0.1,0.3,0.1c0.2,1.3,0.8,5.1,0.4,7c0,0.2,0.1,0.3,0.3,0.2
				c1.4-1,6.1-4.3,8-4.9c0.2-0.1,0.3,0.2,0.2,0.3c-1.2,1.3-5,5.5-7.1,7.1c-0.1,0.1-0.1,0.3,0.1,0.3c1.7,0.1,7.3,0.6,9.5,1.2
				c0.2,0,0.2,0.3,0,0.4c-1.7,0.4-6.1,1.4-8.9,1.4c-0.2,0-0.2,0.2-0.1,0.3c0.9,1,3.8,4.5,5.5,7.3c0.1,0.2-0.1,0.3-0.3,0.3
				C99.1,11.3,92.5,7.4,90.9,2.6C90.9,2.6,90.9,2.6,90.9,2.6z"/>
			<path class="st2" d="M48.4-27.8c0.1,1.2,0.8,4.8,3.4,9.4c0.1,0.1,0,0.3-0.1,0.3c-0.9,0.2-4.1,0.8-9,2.5c-0.2,0.1-0.2,0.3,0,0.4
				c1.6,0.3,5.6,0.9,9.3,0.8c0.1,0,0.2,0.1,0.2,0.2c-0.3,1.1-1.7,6-1.3,9.8c0,0.2,0.2,0.2,0.3,0.1c1-1.2,4.3-5.2,4.9-8.2
				c0-0.2,0.2-0.2,0.3-0.1c0.6,1,2.4,3.4,6.8,6.3c0.1,0.1,0.3,0,0.3-0.2c-0.5-1.5-2.2-6.3-4.4-8.2c-0.1-0.1-0.1-0.3,0.1-0.3
				c1.4-0.3,5.9-1.2,8.9-2.4c0.2-0.1,0.1-0.3,0-0.4c-1.7-0.4-7.1-1.8-9.5-1.5c-0.1,0-0.2-0.1-0.2-0.2c0.4-1.2,2-5.9,2-10.1
				c0-0.2-0.2-0.3-0.3-0.1c-0.9,1.1-3.5,4.5-5,9c0,0.1-0.2,0.2-0.3,0.1c-0.7-1.1-3.3-4.7-6-7.1C48.5-28.1,48.3-28,48.4-27.8z"/>
			<path class="st0" d="M53.5-16.7c-0.5,2,3.2,2.5,3.7,0.7C57.8-18.4,54.5-20,53.5-16.7z"/>
		</g>
	</g>
</g>
</svg>
